<svg width="55" height="55" viewBox="0 0 55 55" fill="none" xmlns="http://www.w3.org/2000/svg">
<mask id="mask0_88_135" style="mask-type:alpha" maskUnits="userSpaceOnUse" x="7" y="7" width="40" height="40">
<rect x="7" y="7" width="40" height="40" fill="#D9D9D9"/>
</mask>
<g mask="url(#mask0_88_135)">
<path d="M16.875 33.3054H30.7362C31.0271 33.3054 31.234 33.1804 31.3571 32.9304C31.4801 32.6804 31.4583 32.4351 31.2916 32.1946L27.1946 26.6804C27.1243 26.5879 27.0425 26.5185 26.9491 26.4721C26.8555 26.426 26.7504 26.4029 26.6337 26.4029C26.5168 26.4029 26.4129 26.426 26.3221 26.4721C26.231 26.5185 26.1514 26.5879 26.0833 26.6804L22.9721 30.7917C22.9073 30.8842 22.824 30.949 22.7221 30.9862C22.6204 31.0232 22.5186 31.0417 22.4166 31.0417C22.3147 31.0417 22.2129 31.0232 22.1112 30.9862C22.0093 30.949 21.926 30.8842 21.8612 30.7917L20.1387 28.5833C20.0657 28.4933 19.9803 28.4315 19.8825 28.3979C19.785 28.364 19.6853 28.3471 19.5833 28.3471C19.4814 28.3471 19.3796 28.3679 19.2779 28.4096C19.176 28.4512 19.0926 28.5185 19.0279 28.6112L16.3196 32.1946C16.1529 32.4351 16.1311 32.6804 16.2541 32.9304C16.3772 33.1804 16.5841 33.3054 16.875 33.3054ZM13.1112 40.3333C12.3612 40.3333 11.7107 40.0579 11.1596 39.5071C10.6087 38.956 10.3333 38.3054 10.3333 37.5554V16.4446C10.3333 15.6946 10.6087 15.044 11.1596 14.4929C11.7107 13.9421 12.3612 13.6667 13.1112 13.6667H34.2221C34.9721 13.6667 35.6226 13.9421 36.1737 14.4929C36.7246 15.044 37 15.6946 37 16.4446V24.9167L42.4721 19.4446C42.6943 19.2224 42.949 19.1671 43.2362 19.2787C43.5232 19.3907 43.6666 19.6033 43.6666 19.9167V34.0833C43.6666 34.3967 43.5232 34.6093 43.2362 34.7212C42.949 34.8329 42.6943 34.7776 42.4721 34.5554L37 29.0833V37.5554C37 38.3054 36.7246 38.956 36.1737 39.5071C35.6226 40.0579 34.9721 40.3333 34.2221 40.3333H13.1112ZM13.1112 37.5554H34.2221V16.4446H13.1112V37.5554Z" fill="#1C1B1F"/>
</g>
<circle cx="27.5" cy="27.5" r="26" stroke="#1C1B1F" stroke-width="3"/>
</svg>
